<?xml version="1.0" encoding="iso-8859-1"?>
<!-- Generator: Adobe Illustrator 16.0.0, SVG Export Plug-In . SVG Version: 6.00 Build 0)  -->
<!DOCTYPE svg PUBLIC "-//W3C//DTD SVG 1.1//EN" "http://www.w3.org/Graphics/SVG/1.1/DTD/svg11.dtd">
<svg version="1.1" id="Capa_1" xmlns="http://www.w3.org/2000/svg" xmlns:xlink="http://www.w3.org/1999/xlink" x="0px" y="0px"
	 width="144.427px" height="144.427px" viewBox="0 0 144.427 144.427" style="enable-background:new 0 0 144.427 144.427;"
	 xml:space="preserve">
<g>
<path d="M0.002,123.619C0,123.484,0,123.438,0.002,123.619L0.002,123.619z"/>
<path d="M134.563,5.449c0,0-7.158-0.347-10.589,3.085c-1.421,1.409-2.927,3.098-4.624,4.884c-6.754,7.176-15.693,16.809-24.558,26.519c-8.825,9.748-17.646,19.506-24.083,27c-3.234,3.733-5.933,6.838-7.821,9.012c-1.864,2.199-2.929,3.458-2.929,3.458c-2.169,2.555-2.258,6.376-0.04,9.047c2.485,2.983,6.922,3.39,9.907,0.908c0,0,1.266-1.059,3.483-2.901c2.194-1.866,5.324-4.537,9.081-7.74c7.551-6.375,17.382-15.105,27.206-23.846c9.784-8.78,19.497-17.635,26.728-24.33c1.802-1.679,3.502-3.17,4.923-4.578c3.18-3.014,3.18-7.529,3.18-8.885C144.436,11.628,142.333,6.109,134.563,5.449z"/><path d="M78.939,94.825c0,0-0.036-1.3-0.355-3.267c-0.146-0.896-0.765-1.646-1.615-1.962c-0.854-0.316-1.812-0.148-2.506,0.438l-2.382,2.017c-1.897,1.576-4.286,2.44-6.741,2.44c-3.142,0-6.094-1.383-8.104-3.793c-3.284-3.949-3.258-9.649,0.058-13.557l2.037-2.365c0.32-0.368,0.388-0.896,0.176-1.335c-0.216-0.442-0.671-0.714-1.161-0.691c0,0-36.537-0.976-38.566,30.112c-1.722,26.372-14.744,23.391-18.657,21.518c-0.107-0.05-0.234-0.043-0.332,0.021c-0.1,0.062-0.161,0.174-0.161,0.29c0,0.009,0,0.016,0,0.022c0,0.475,0.138,0.931,0.395,1.33c3.582,5.543,17.449,21.216,53.936,7.396C54.961,133.439,82.329,123.5,78.939,94.825z"/>
</g>
<g>
</g>
<g>
</g>
<g>
</g>
<g>
</g>
<g>
</g>
<g>
</g>
<g>
</g>
<g>
</g>
<g>
</g>
<g>
</g>
<g>
</g>
<g>
</g>
<g>
</g>
<g>
</g>
<g>
</g>
</svg>
