<?xml version="1.0" encoding="iso-8859-1"?>
<!-- Generator: Adobe Illustrator 16.0.0, SVG Export Plug-In . SVG Version: 6.00 Build 0)  -->
<!DOCTYPE svg PUBLIC "-//W3C//DTD SVG 1.1//EN" "http://www.w3.org/Graphics/SVG/1.1/DTD/svg11.dtd">
<svg version="1.1" id="Capa_1" xmlns="http://www.w3.org/2000/svg" xmlns:xlink="http://www.w3.org/1999/xlink" x="0px" y="0px"
	 width="31.622px" height="31.623px" viewBox="0 0 31.622 31.623" style="enable-background:new 0 0 31.622 31.623;"
	 xml:space="preserve">
<g>
<g><path d="M31.622,5.663c0-0.84-0.683-1.521-1.521-1.521H1.521C0.681,4.142,0,4.823,0,5.663v20.295C0,26.8,0.681,27.48,1.521,27.48h28.581c0.84,0,1.521-0.682,1.521-1.521V5.663L31.622,5.663z M28.559,24.417H3.062V7.153h25.497V24.417z"/><path d="M15.528,23.014h11.777V18.32c-1.656-0.56-3.481-0.887-5.451-0.887c-1.033,0-2.026,0.087-2.981,0.251v-2.911c0-0.56-0.47-1.014-1.026-1.014c-0.559,0-1.029,0.454-1.029,1.014v3.393c-0.4,0.121-0.762,0.254-1.132,0.401c-0.364-1.459-1.127-2.764-2.13-3.795v-3.258c0-0.56-0.469-1.014-1.029-1.014s-1.029,0.454-1.029,1.014v1.769c-0.853-0.456-1.857-0.757-2.861-0.87v-1.435c0-0.56-0.444-1.014-1.004-1.014s-1.004,0.454-1.004,1.014v1.464c-0.853,0.118-1.606,0.359-2.359,0.697v9.874h6.051L15.528,23.014L15.528,23.014z"/><circle cx="23.454" cy="12.073" r="3.712"/></g>
</g>
<g>
</g>
<g>
</g>
<g>
</g>
<g>
</g>
<g>
</g>
<g>
</g>
<g>
</g>
<g>
</g>
<g>
</g>
<g>
</g>
<g>
</g>
<g>
</g>
<g>
</g>
<g>
</g>
<g>
</g>
</svg>
