<?xml version="1.0" encoding="iso-8859-1"?>
<!-- Generator: Adobe Illustrator 18.1.1, SVG Export Plug-In . SVG Version: 6.00 Build 0)  -->
<svg version="1.1" id="Capa_1" xmlns="http://www.w3.org/2000/svg" xmlns:xlink="http://www.w3.org/1999/xlink" x="0px" y="0px"
	 viewBox="0 0 16 16" style="enable-background:new 0 0 16 16;" xml:space="preserve">
<g>
	<path style="fill:#030104;" d="M15,4l-4-3v2H4.997C2.237,3,0,5.244,0,8c0,0.838,0.206,1.628,0.571,2.321l1.635-1.226
		C2.073,8.756,2,8.387,2,8c0-1.653,1.342-3,2.997-3H11v2L15,4z"/>
	<path style="fill:#030104;" d="M13.794,6.904C13.927,7.244,14,7.613,14,8c0,1.653-1.342,3-2.997,3H5V9l-4,3l4,3v-2h6.003
		C13.763,13,16,10.756,16,8c0-0.838-0.206-1.628-0.571-2.321L13.794,6.904z"/>
</g>
<g>
</g>
<g>
</g>
<g>
</g>
<g>
</g>
<g>
</g>
<g>
</g>
<g>
</g>
<g>
</g>
<g>
</g>
<g>
</g>
<g>
</g>
<g>
</g>
<g>
</g>
<g>
</g>
<g>
</g>
</svg>
