<?xml version="1.0" encoding="UTF-8" standalone="no"?>
<!-- Generator: Adobe Illustrator 16.0.0, SVG Export Plug-In . SVG Version: 6.00 Build 0)  -->

<svg
   xmlns:dc="http://purl.org/dc/elements/1.1/"
   xmlns:cc="http://creativecommons.org/ns#"
   xmlns:rdf="http://www.w3.org/1999/02/22-rdf-syntax-ns#"
   xmlns:svg="http://www.w3.org/2000/svg"
   xmlns="http://www.w3.org/2000/svg"
   xmlns:sodipodi="http://sodipodi.sourceforge.net/DTD/sodipodi-0.dtd"
   xmlns:inkscape="http://www.inkscape.org/namespaces/inkscape"
   version="1.1"
   id="Capa_1"
   x="0px"
   y="0px"
   width="406.639px"
   height="406.639px"
   viewBox="0 0 406.639 406.639"
   style="enable-background:new 0 0 406.639 406.639;"
   xml:space="preserve"
   inkscape:version="0.91 r13725"
   sodipodi:docname="screen-fit.svg"><title
   id="title3354">screen-fit</title><metadata
   id="metadata55"><rdf:RDF><cc:Work
       rdf:about=""><dc:format>image/svg+xml</dc:format><dc:type
         rdf:resource="http://purl.org/dc/dcmitype/StillImage" /><dc:title>screen-fit</dc:title></cc:Work></rdf:RDF></metadata><defs
   id="defs53" /><sodipodi:namedview
   pagecolor="#ffffff"
   bordercolor="#666666"
   borderopacity="1"
   objecttolerance="10"
   gridtolerance="10"
   guidetolerance="10"
   inkscape:pageopacity="0"
   inkscape:pageshadow="2"
   inkscape:window-width="1366"
   inkscape:window-height="705"
   id="namedview51"
   showgrid="false"
   inkscape:zoom="0.58036734"
   inkscape:cx="203.3195"
   inkscape:cy="203.3195"
   inkscape:window-x="-8"
   inkscape:window-y="-8"
   inkscape:window-maximized="1"
   inkscape:current-layer="Capa_1" />
<g
   id="g3">
	<g
   id="g5">
		<path
   d="M236.391,345.439c0-1.559-1.275-2.834-2.835-2.834h-60.473c-1.559,0-2.834,1.275-2.834,2.834v9.52    c0,1.559-1.275,2.834-2.834,2.834h-43.22c-1.559,0-2.834,1.275-2.834,2.834v12.168c0,1.561,1.275,2.834,2.834,2.834h158.249    c1.561,0,2.836-1.273,2.836-2.834v-12.168c0-1.559-1.275-2.834-2.836-2.834h-43.217c-1.561,0-2.835-1.275-2.835-2.834    L236.391,345.439L236.391,345.439z"
   id="path7" />
		<path
   d="M383.855,31.01H22.783C10.22,31.01,0,41.231,0,53.794v250.921c0,12.562,10.221,22.783,22.783,22.783h361.073    c12.562,0,22.783-10.221,22.783-22.783V53.795C406.639,41.231,396.418,31.01,383.855,31.01z M22.783,48.255h361.073    c3.002,0,5.541,2.537,5.541,5.54v222.449H17.242V53.795C17.242,50.792,19.779,48.255,22.783,48.255z M193.054,297.561    c0-5.67,4.596-10.266,10.264-10.266c5.67,0,10.268,4.596,10.268,10.266s-4.598,10.266-10.268,10.266    C197.65,307.826,193.054,303.23,193.054,297.561z"
   id="path9" />
		<g
   id="g11"
   transform="translate(-497.96048,43.076166)">
			
			
		</g>
	<polygon
   style="fill:#010002"
   points="20,6 28,14 28,6 "
   id="polygon9"
   transform="matrix(9.375,0,0,9.375,115.2023,1.9785003)" /><polygon
   style="fill:#010002"
   points="4,14 4,22 12,22 "
   id="polygon11"
   transform="matrix(9.375,0,0,9.375,-8.7621198,59.65309)" /></g>
</g>
<g
   id="g21">
</g>
<g
   id="g23">
</g>
<g
   id="g25">
</g>
<g
   id="g27">
</g>
<g
   id="g29">
</g>
<g
   id="g31">
</g>
<g
   id="g33">
</g>
<g
   id="g35">
</g>
<g
   id="g37">
</g>
<g
   id="g39">
</g>
<g
   id="g41">
</g>
<g
   id="g43">
</g>
<g
   id="g45">
</g>
<g
   id="g47">
</g>
<g
   id="g49">
</g>
</svg>