<?xml version="1.0" encoding="UTF-8" standalone="no"?>
<!-- Generator: Adobe Illustrator 16.0.0, SVG Export Plug-In . SVG Version: 6.00 Build 0)  -->

<svg
   xmlns:dc="http://purl.org/dc/elements/1.1/"
   xmlns:cc="http://creativecommons.org/ns#"
   xmlns:rdf="http://www.w3.org/1999/02/22-rdf-syntax-ns#"
   xmlns:svg="http://www.w3.org/2000/svg"
   xmlns="http://www.w3.org/2000/svg"
   xmlns:sodipodi="http://sodipodi.sourceforge.net/DTD/sodipodi-0.dtd"
   xmlns:inkscape="http://www.inkscape.org/namespaces/inkscape"
   version="1.1"
   id="Capa_1"
   x="0px"
   y="0px"
   width="406.639px"
   height="406.639px"
   viewBox="0 0 406.639 406.639"
   style="enable-background:new 0 0 406.639 406.639;"
   xml:space="preserve"
   inkscape:version="0.91 r13725"
   sodipodi:docname="screen-video.svg"><title
   id="title3401">screen-video</title><metadata
   id="metadata55"><rdf:RDF><cc:Work
       rdf:about=""><dc:format>image/svg+xml</dc:format><dc:type
         rdf:resource="http://purl.org/dc/dcmitype/StillImage" /><dc:title>screen-video</dc:title></cc:Work></rdf:RDF></metadata><defs
   id="defs53" /><sodipodi:namedview
   pagecolor="#ffffff"
   bordercolor="#666666"
   borderopacity="1"
   objecttolerance="10"
   gridtolerance="10"
   guidetolerance="10"
   inkscape:pageopacity="0"
   inkscape:pageshadow="2"
   inkscape:window-width="1366"
   inkscape:window-height="705"
   id="namedview51"
   showgrid="false"
   inkscape:zoom="0.58036734"
   inkscape:cx="203.3195"
   inkscape:cy="203.3195"
   inkscape:window-x="-8"
   inkscape:window-y="-8"
   inkscape:window-maximized="1"
   inkscape:current-layer="Capa_1" />
<g
   id="g3">
	<g
   id="g5">
		<path
   d="M236.391,345.439c0-1.559-1.275-2.834-2.835-2.834h-60.473c-1.559,0-2.834,1.275-2.834,2.834v9.52    c0,1.559-1.275,2.834-2.834,2.834h-43.22c-1.559,0-2.834,1.275-2.834,2.834v12.168c0,1.561,1.275,2.834,2.834,2.834h158.249    c1.561,0,2.836-1.273,2.836-2.834v-12.168c0-1.559-1.275-2.834-2.836-2.834h-43.217c-1.561,0-2.835-1.275-2.835-2.834    L236.391,345.439L236.391,345.439z"
   id="path7" />
		<path
   d="M383.855,31.01H22.783C10.22,31.01,0,41.231,0,53.794v250.921c0,12.562,10.221,22.783,22.783,22.783h361.073    c12.562,0,22.783-10.221,22.783-22.783V53.795C406.639,41.231,396.418,31.01,383.855,31.01z M22.783,48.255h361.073    c3.002,0,5.541,2.537,5.541,5.54v222.449H17.242V53.795C17.242,50.792,19.779,48.255,22.783,48.255z M193.054,297.561    c0-5.67,4.596-10.266,10.264-10.266c5.67,0,10.268,4.596,10.268,10.266s-4.598,10.266-10.268,10.266    C197.65,307.826,193.054,303.23,193.054,297.561z"
   id="path9" />
		
	</g>
</g>
<g
   id="g21">
</g>
<g
   id="g23">
</g>
<g
   id="g25">
</g>
<g
   id="g27">
</g>
<g
   id="g29">
</g>
<g
   id="g31">
</g>
<g
   id="g33">
</g>
<g
   id="g35">
</g>
<g
   id="g37">
</g>
<g
   id="g39">
</g>
<g
   id="g41">
</g>
<g
   id="g43">
</g>
<g
   id="g45">
</g>
<g
   id="g47">
</g>
<g
   id="g49">
</g>
<path
   d="m 220.83595,241.23853 c 49.83618,-6.84282 72.60914,-69.58938 55.95642,-111.94098 -13.66378,-34.686792 -51.40183,-50.889719 -86.3441,-46.461399 -40.46269,5.126991 -64.86227,39.043209 -68.25789,78.117229 0.44732,53.02685 48.47389,87.17937 98.64557,80.28515 z M 182.14224,138.90426 c 0.0204,-1.58228 0.53881,-2.85632 1.21998,-3.93516 1.43349,-3.20564 4.68675,-5.22974 8.44835,-3.32894 0.18301,0.0514 0.29485,0.13344 0.44733,0.18494 0.0508,0.0205 0.0915,0.01 0.15264,0.041 0.0508,0.041 0.10176,0.0618 0.16272,0.0925 0.75232,0.28768 1.41314,0.69866 1.97229,1.25349 13.08429,8.15798 26.16858,16.31596 39.25286,24.46365 4.20893,2.63029 6.09992,9.52448 0.94549,12.53493 -13.82643,8.08604 -27.67322,16.1721 -41.49966,24.25816 -4.35125,2.5378 -11.21365,0.39042 -11.21365,-5.50716 0.0712,-16.68582 0.0914,-33.38193 0.11184,-50.05748 z"
   id="path8"
   inkscape:connector-curvature="0" /></svg>