<?xml version="1.0"?>
<svg width="406.639" height="406.639" xmlns="http://www.w3.org/2000/svg">
 <title>screen-chat</title>
 <metadata id="metadata55">image/svg+xmlscreen-chat</metadata>

 <g>
  <title>background</title>
  <rect fill="none" id="canvas_background" height="402" width="582" y="-1" x="-1"/>
 </g>
 <g>
  <title>Layer 1</title>
  <g stroke="null" id="g3">
		<path stroke="#000" id="svg_1" d="m2.715,204.184l0,0c0,-111.284 89.542,-201.499 199.999,-201.499l0,0c53.044,0 103.915,21.229 141.421,59.018c37.508,37.788 58.579,89.040 58.579,142.481l0,0c0,111.285 -89.542,201.500 -200.000,201.500l0,0c-110.456,0 -199.999,-90.214 -199.999,-201.500l0,0zm322.954,90.141l0,0c44.033,-60.969 37.488,-145.153 -15.431,-198.469c-52.919,-53.316 -136.477,-59.910 -196.990,-15.546l212.422,214.016l0,0zm-245.907,-180.280c-44.034,60.968 -37.488,145.153 15.430,198.468c52.919,53.316 136.476,59.911 196.990,15.547l-212.421,-214.015l0,0z" stroke-opacity="null" stroke-width="1.5" fill="#000000"/>
   <path stroke="null" id="path7" d="m228.101,288.368c0,-0.839 -0.685,-1.526 -1.524,-1.526l-32.514,0c-0.838,0 -1.523,0.686 -1.523,1.526l0,5.127c0,0.839 -0.685,1.526 -1.523,1.526l-23.238,0c-0.838,0 -1.523,0.686 -1.523,1.526l0,6.553c0,0.840 0.685,1.526 1.523,1.526l85.086,0c0.839,0 1.524,-0.685 1.524,-1.526l0,-6.553c0,-0.839 -0.685,-1.526 -1.524,-1.526l-23.236,0c-0.839,0 -1.524,-0.686 -1.524,-1.526l-0.000,-5.127l0,0z"/>
   <path stroke="null" id="path9" d="m307.388,119.010l-194.138,0c-6.754,0 -12.249,5.505 -12.249,12.271l0,135.151c0,6.766 5.495,12.271 12.249,12.271l194.139,0c6.754,0 12.249,-5.505 12.249,-12.271l0,-135.150c0,-6.767 -5.495,-12.272 -12.250,-12.272zm-194.138,9.288l194.139,0c1.614,0 2.979,1.366 2.979,2.983l0,119.815l-200.097,0l0,-119.815c0,-1.617 1.364,-2.983 2.979,-2.983zm91.550,134.281c0,-3.053 2.471,-5.529 5.518,-5.529c3.048,0 5.520,2.475 5.520,5.529s-2.472,5.529 -5.520,5.529c-3.047,-0.000 -5.518,-2.476 -5.518,-5.529z"/>
  </g>
 </g>
</svg>