<?xml version="1.0"?>
<svg width="472.521" height="472.521" xmlns="http://www.w3.org/2000/svg">

 <g>
  <title>background</title>
  <rect fill="none" id="canvas_background" height="402" width="582" y="-1" x="-1"/>
 </g>
 <g>
  <title>Layer 1</title>
  <g id="svgMic">
   <g id="svg_18">
    <path d="m352.397125,187.059647c-21.549286,-3.741791 -41.948914,-13.66394 -58.197571,-29.461533c-16.231232,-15.813416 -26.409424,-35.666481 -30.238251,-56.654854c21.819122,-13.310478 53.449249,-8.596069 75.35733,12.729958c21.893646,21.326035 26.732117,52.13121 13.078491,73.386429zm-15.056335,14.664063c-20.696503,-5.632599 -40.0979,-16.082581 -56.026825,-31.577637c-15.91153,-15.510864 -26.64563,-34.402435 -32.401184,-54.547531c-13.65065,21.255219 -8.809753,52.044617 13.073669,73.369476c21.908691,21.316666 53.518402,26.038666 75.35434,12.755692zm-86.657532,94.454391c-27.220734,0 -46.683441,16.564819 -63.856995,31.174469c-18.973511,16.152222 -35.419281,30.157318 -59.615303,22.895508c-4.787399,-3.4328 -4.92923,-6.238281 -4.982712,-7.190979c-0.338959,-6.379913 7.598778,-14.939697 11.497337,-18.094543c0.480759,-0.382141 0.754227,-0.901184 1.130432,-1.368195c6.389008,2.165863 13.729355,0.914642 18.847885,-4.056061l123.944687,-99.350204c-10.251495,-4.237473 -20.020386,-10.371613 -28.535675,-18.674484c-8.529083,-8.301712 -14.809937,-17.824738 -19.154388,-27.788437l-102.017982,120.70256c-4.538589,4.418854 -5.855331,10.534271 -4.618515,16.217773c-0.382828,0.227051 -0.81073,0.330078 -1.166504,0.609192c-1.94957,1.559601 -18.981308,15.666534 -18.135727,32.632172c0.302887,5.965057 2.973038,14.576324 14.034042,21.786621l2.180954,1.037567c7.093353,2.305115 13.704124,3.309937 19.91703,3.309937c24.240509,0 42.323364,-15.38739 58.671158,-29.305298c16.186783,-13.779266 31.482895,-26.79303 51.860886,-26.79303c46.971893,0 83.331116,49.011475 83.703705,49.494873c2.90036,4.039063 8.616852,4.937958 12.692108,2.100281c4.111877,-2.827118 5.071045,-8.3573 2.170715,-12.355988c-1.691742,-2.324463 -42.109375,-56.983734 -98.567139,-56.983734z"/>
    <path d="m5.292,241.226349l0,0c0,-127.197906 103.534157,-230.312461 231.249977,-230.312461l0,0c61.331589,0 120.151962,24.265117 163.518204,67.457053c43.36795,43.192215 67.731781,101.773621 67.731781,162.855408l0,0c0,127.198822 -103.533234,230.312469 -231.249985,230.312469l0,0c-127.71582,0 -231.249977,-103.113647 -231.249977,-230.312469l0,0zm373.416252,103.029358l0,0c50.913818,-69.686188 43.345276,-165.908539 -17.843048,-226.84832c-61.188385,-60.940277 -157.8022,-68.477741 -227.770889,-17.770073l245.613937,244.618393l0,0zm-284.331635,-206.057175c-50.91375,69.686218 -43.345753,165.907974 17.842361,226.847122c61.187912,60.940247 157.801834,68.477783 227.770157,17.770569l-245.612518,-244.617691l0,0z" fill-opacity="null" stroke-opacity="null" stroke-width="null" fill="null"/>
   </g>
  </g>
  <g id="svg_2"/>
  <g id="svg_3"/>
  <g id="svg_4"/>
  <g id="svg_5"/>
  <g id="svg_6"/>
  <g id="svg_7"/>
  <g id="svg_8"/>
  <g id="svg_9"/>
  <g id="svg_10"/>
  <g id="svg_11"/>
  <g id="svg_12"/>
  <g id="svg_13"/>
  <g id="svg_14"/>
  <g id="svg_15"/>
  <g id="svg_16"/>
 </g>
</svg>