<?xml version="1.0"?>
<svg width="510" height="510" xmlns="http://www.w3.org/2000/svg">

 <g>
  <title>background</title>
  <rect fill="none" id="canvas_background" height="402" width="582" y="-1" x="-1"/>
 </g>
 <g>
  <title>Layer 1</title>
  <g stroke="null" id="svg_1">
   <g stroke="null" id="voice">
    <path stroke="null" id="svg_2" d="m353.300,129l-197.600,0c-13.584,0 -24.699,11.924 -24.699,26.5l0,238.5l49.400,-53l172.900,0c13.584,0 24.699,-11.925 24.699,-26.5l0,-159c0,-14.575 -11.115,-26.5 -24.699,-26.5zm-24.700,159l-49.399,-42.400l0,42.400l-98.800,0l0,-106l98.800,0l0,42.399l49.399,-42.399l0,106z"/>
		<path stroke="#000" id="svg_18" d="m2.322,254.847l0,0c0,-139.451 113.047,-252.499 252.499,-252.499l0,0c66.967,0 131.192,26.601 178.544,73.955c47.354,47.353 73.955,111.578 73.955,178.544l0,0c0,139.452 -113.047,252.500 -252.499,252.500l0,0c-139.452,0 -252.499,-113.047 -252.499,-252.500l0,0zm407.730,112.955l0,0c55.591,-76.401 47.328,-181.892 -19.482,-248.702c-66.812,-66.811 -172.303,-75.074 -248.702,-19.481l268.185,268.184l0,0zm-310.460,-225.909c-55.591,76.399 -47.327,181.891 19.482,248.700c66.811,66.812 172.302,75.074 248.700,19.483l-268.183,-268.184l0,0z" stroke-width="1.5" fill="#000000"/>
  </g>
  </g>
  <g id="svg_3"/>
  <g id="svg_4"/>
  <g id="svg_5"/>
  <g id="svg_6"/>
  <g id="svg_7"/>
  <g id="svg_8"/>
  <g id="svg_9"/>
  <g id="svg_10"/>
  <g id="svg_11"/>
  <g id="svg_12"/>
  <g id="svg_13"/>
  <g id="svg_14"/>
  <g id="svg_15"/>
  <g id="svg_16"/>
  <g id="svg_17"/>
 </g>
</svg>