<?xml version="1.0" encoding="iso-8859-1"?>
<!-- Generator: Adobe Illustrator 16.0.0, SVG Export Plug-In . SVG Version: 6.00 Build 0)  -->
<!DOCTYPE svg PUBLIC "-//W3C//DTD SVG 1.1//EN" "http://www.w3.org/Graphics/SVG/1.1/DTD/svg11.dtd">
<svg version="1.1" id="Capa_1" xmlns="http://www.w3.org/2000/svg" xmlns:xlink="http://www.w3.org/1999/xlink" x="0px" y="0px"
	 width="164.145px" height="164.145px" viewBox="0 0 164.145 164.145" style="enable-background:new 0 0 164.145 164.145;"
	 xml:space="preserve">
<g>
	<g>
		<path d="M108.143,130.938V98.075l8.622,3.557v-0.007c0,0,2.911,0.963,7.063,0.092c-8.701-6.759-19.132-12.239-30.674-15.168
			c13.515-9.098,22.831-27.03,22.831-43.178c0-22.798-18.486-41.272-41.269-41.272S33.454,20.572,33.454,43.37
			c0,16.148,9.308,34.081,22.825,43.178C23.958,94.75,0,122.809,0,143.61c0,12.294,37.351,18.426,74.705,18.419l-20.919-20.916
			l17.622-42.6h-0.188l-6.844-7.849c3.31,1.188,6.759,1.905,10.336,1.905c3.581,0,7.021-0.706,10.327-1.899l-6.847,7.843h-0.167
			l17.619,42.6l-20.919,20.916c17.205-0.006,34.406-1.309,47.961-3.927C115.475,151.775,108.143,142.501,108.143,130.938z"/>
		<polygon points="74.711,162.047 74.723,162.036 74.699,162.036 		"/>
		<path d="M139.259,99.548c-12.44,12.994-24.881,7.855-24.881,7.855s0,4.877,0,23.534c0,18.669,24.881,31.109,24.881,31.109
			s24.886-12.44,24.886-31.109c0-18.657,0-23.534,0-23.534S151.711,112.542,139.259,99.548z M139.259,154.912
			c-6.979-4.227-18.646-13.482-18.646-23.974v-16.301c4.829,0,11.637-1.278,18.646-6.698V154.912z"/>
	</g>
</g>
<g>
</g>
<g>
</g>
<g>
</g>
<g>
</g>
<g>
</g>
<g>
</g>
<g>
</g>
<g>
</g>
<g>
</g>
<g>
</g>
<g>
</g>
<g>
</g>
<g>
</g>
<g>
</g>
<g>
</g>
</svg>
