<svg xmlns="http://www.w3.org/2000/svg" width="160px" height="160px">
<g id="svgUser"><path d="M 98.404813,84.45 C 111.92281,75.353 121.23881,57.42 121.23881,41.268 121.23781,18.48 102.76381,0 79.975813,0 c -22.789,0 -41.273,18.474 -41.273,41.269 0,16.152 9.31,34.084 22.834,43.182 -32.33,8.202 -56.2849997,36.261 -56.2849997,57.062 0,12.288 37.3539997,18.426 74.7109997,18.426 l -20.925,-20.922 17.622,-42.601 -0.183,0 -6.844,-7.854 c 3.315,1.193 6.765,1.906 10.343,1.906 3.574,0 7.018,-0.713 10.317,-1.895 l -6.838,7.837 -0.173,0 17.617997,42.6 -20.924997,20.917 c 16.151,0 74.079437,-5.84767 74.708997,-18.77927 C 154.96489,112.30443 129.79657,95.195415 98.404813,84.45 Z"/></g>
</svg>