<?xml version="1.0" encoding="iso-8859-1"?>
<!-- Generator: Adobe Illustrator 16.0.0, SVG Export Plug-In . SVG Version: 6.00 Build 0)  -->
<!DOCTYPE svg PUBLIC "-//W3C//DTD SVG 1.1//EN" "http://www.w3.org/Graphics/SVG/1.1/DTD/svg11.dtd">
<svg version="1.1" id="Capa_1" xmlns="http://www.w3.org/2000/svg" xmlns:xlink="http://www.w3.org/1999/xlink" x="0px" y="0px"
	 width="175.039px" height="175.038px" viewBox="0 0 175.039 175.038" style="enable-background:new 0 0 175.039 175.038;"
	 xml:space="preserve">
<g>
	<g>
		<path d="M169.893,147.561l5.146-22.273l-7.903-1.82c-0.122-1.006-0.293-2.01-0.5-3.002l6.881-4.3l-12.117-19.388l-6.881,4.299
			c-0.798-0.621-1.619-1.218-2.472-1.771l1.826-7.91l-22.286-5.136l-1.814,7.913c-1.005,0.121-2.01,0.292-3.008,0.511l-4.312-6.893
			l-13.847,8.665c-4.871-2.363-10.035-4.336-15.457-5.712c13.521-9.097,22.837-27.023,22.837-43.182
			c0-22.788-18.486-41.269-41.269-41.269S33.454,24.767,33.454,47.562c0,16.158,9.308,34.084,22.834,43.182
			C23.952,98.934,0,127.004,0,147.805c0,12.288,37.357,18.426,74.711,18.426l-20.925-20.922l17.622-42.601h-0.179l-6.848-7.854
			c3.304,1.193,6.759,1.906,10.336,1.906c3.575,0,7.024-0.713,10.327-1.895l-6.847,7.837h-0.167l17.619,42.6L74.726,166.23
			c13.816,0,27.633-0.84,39.555-2.521l21.727,5.036l1.827-7.909c1.011-0.129,2.021-0.293,3.02-0.512l4.293,6.881l19.37-12.118
			l-4.293-6.874c0.639-0.798,1.224-1.626,1.771-2.479L169.893,147.561z M158.792,138.598c-1.461,3.307-3.616,6.357-6.362,8.914
			l3.501,5.608l-8.793,5.499l-3.507-5.614c-3.508,1.352-7.186,1.96-10.79,1.814l-1.498,6.442l-10.103-2.338l1.48-6.431
			c-3.312-1.474-6.357-3.617-8.909-6.369l-5.62,3.507l-5.505-8.805l5.614-3.507c-1.352-3.52-1.948-7.173-1.826-10.803l-6.437-1.485
			l2.345-10.114l6.436,1.479c1.468-3.307,3.623-6.345,6.376-8.914l-3.502-5.614l8.781-5.493l3.513,5.615
			c3.508-1.353,7.18-1.949,10.803-1.814l1.474-6.443l10.132,2.326l-1.485,6.431c3.312,1.485,6.333,3.629,8.902,6.382l5.602-3.508
			l5.511,8.811l-5.607,3.502c1.339,3.501,1.948,7.185,1.814,10.796l6.43,1.485l-2.338,10.127L158.792,138.598z"/>
		<polygon points="74.711,166.23 74.717,166.23 74.705,166.23 		"/>
		<path d="M133.797,108.858c10.296,0,18.645,8.354,18.645,18.646c0,10.303-8.349,18.645-18.645,18.645
			c-10.297,0-18.64-8.342-18.64-18.645C115.158,117.213,123.5,108.858,133.797,108.858z"/>
	</g>
</g>
<g>
</g>
<g>
</g>
<g>
</g>
<g>
</g>
<g>
</g>
<g>
</g>
<g>
</g>
<g>
</g>
<g>
</g>
<g>
</g>
<g>
</g>
<g>
</g>
<g>
</g>
<g>
</g>
<g>
</g>
</svg>
