<?xml version="1.0" encoding="iso-8859-1"?>
<!-- Generator: Adobe Illustrator 16.0.0, SVG Export Plug-In . SVG Version: 6.00 Build 0)  -->
<!DOCTYPE svg PUBLIC "-//W3C//DTD SVG 1.1//EN" "http://www.w3.org/Graphics/SVG/1.1/DTD/svg11.dtd">
<svg version="1.1" id="Capa_1" xmlns="http://www.w3.org/2000/svg" xmlns:xlink="http://www.w3.org/1999/xlink" x="0px" y="0px"
	 width="31.695px" height="31.695px" viewBox="0 0 31.695 31.695" style="enable-background:new 0 0 31.695 31.695;"
	 xml:space="preserve">
<g>
	<path d="M28.632,11.107h-7.884c-0.372-0.863-0.422-1.771-0.148-2.663c0.486-1.582,1.396-4.524-1.235-6.451
		c-0.842-0.617-1.836-0.941-2.877-0.941c-1.552,0-3.022,0.748-3.938,1.999c-1.604,2.193-1.884,4.05-1.827,6.517
		c0.025,1.07-0.177,1.49-0.24,1.545l-4.436,0.006c-3.344,0-5.683,1.889-5.958,4.81c-0.149,1.574-0.111,3.041,0.128,4.896
		c0.285,2.196,0.647,4.09,0.994,5.184c0.73,2.299,2.926,4.635,5.708,4.635l21.707-0.021c0.814,0.002,1.595-0.317,2.174-0.896
		c0.578-0.578,0.896-1.359,0.896-2.176V14.032C31.696,12.333,30.332,11.107,28.632,11.107z M19.438,26.077
		c-0.387,1.018-1.354,2.108-2.175,2.108H6.917c-0.744,0-1.453-0.329-2.038-0.823c0.001,0,0.001,0,0.001,0
		c-1.265-1.318,0.135-1.767,0.827-1.916c0.203-0.043,0.35-0.222,0.363-0.427l0.005-0.09c0.006-0.104-0.028-0.203-0.098-0.276
		c-0.069-0.076-0.165-0.123-0.268-0.125c-1.824-0.062-2.749-0.322-2.641-1.445c0.264-0.547,1.196-0.898,1.771-1.066
		c0.279-0.084,0.477-0.34,0.477-0.631V21.21c0-0.283-0.24-0.514-0.525-0.514H4.691c-1.383-0.041-1.922-0.427-2.127-0.763
		c-0.076-0.252-0.205-0.317-0.081-0.752c0.225-1.062,1.532-1.312,2.287-1.362c0.306-0.021,0.547-0.273,0.547-0.58v-0.084
		c0-0.307-0.241-0.561-0.548-0.582c-2.374-0.162-1.91-1.542-1.888-1.604h0.004c0,0,0.005,0,0.005-0.002l0,0L2.884,14.96
		c0.785-1.296,2.542-1.426,3.16-1.426h4.207c0.021,0,0.134,0.013,0.154,0.013c0.713,0,1.338-0.248,1.811-0.732
		c0.67-0.686,0.978-1.768,0.942-3.309c-0.05-2.077,0.14-3.357,1.356-5.019c0.773-1.053,2.352-1.3,3.41-0.526
		c0.814,0.597,0.656,1.25,0.344,3.771c-0.614,5.001,1.784,7.392,2.263,12.225C20.763,22.312,19.964,24.669,19.438,26.077z
		 M29.082,15.635h-5.237c-0.726,0-1.31-0.593-1.31-1.317c0-0.725,0.586-1.316,1.31-1.316h5.237c0.725,0,1.31,0.592,1.31,1.316
		C30.393,15.042,29.807,15.635,29.082,15.635z"/>
</g>
<g>
</g>
<g>
</g>
<g>
</g>
<g>
</g>
<g>
</g>
<g>
</g>
<g>
</g>
<g>
</g>
<g>
</g>
<g>
</g>
<g>
</g>
<g>
</g>
<g>
</g>
<g>
</g>
<g>
</g>
</svg>
