<?xml version="1.0" encoding="iso-8859-1"?>
<!-- Generator: Adobe Illustrator 16.0.0, SVG Export Plug-In . SVG Version: 6.00 Build 0)  -->
<!DOCTYPE svg PUBLIC "-//W3C//DTD SVG 1.1//EN" "http://www.w3.org/Graphics/SVG/1.1/DTD/svg11.dtd">
<svg version="1.1" id="Capa_1" xmlns="http://www.w3.org/2000/svg" xmlns:xlink="http://www.w3.org/1999/xlink" x="0px" y="0px"
	 width="31.559px" height="31.56px" viewBox="0 0 31.559 31.56" style="enable-background:new 0 0 31.559 31.56;"
	 xml:space="preserve">
<g>
	<path d="M31.559,17.587V4.134c0-0.813-0.318-1.592-0.895-2.167c-0.576-0.575-1.353-0.896-2.165-0.894L6.888,1.049
		c-2.771,0-4.955,2.325-5.683,4.616c-0.346,1.087-0.706,2.971-0.99,5.158c-0.237,1.85-0.276,3.309-0.128,4.877
		c0.275,2.91,2.604,4.789,5.933,4.789l4.415,0.008c0.062,0.055,0.265,0.473,0.239,1.537c-0.057,2.455,0.222,4.306,1.818,6.487
		c0.913,1.245,2.379,1.99,3.924,1.99c1.035,0,2.025-0.323,2.863-0.938c2.621-1.92,1.717-4.851,1.23-6.425
		c-0.271-0.889-0.223-1.79,0.146-2.649h7.852C30.201,20.498,31.559,19.279,31.559,17.587z M20.442,11.687
		c-0.477,4.812-2.865,7.192-2.252,12.173c0.312,2.508,0.469,3.157-0.345,3.754c-1.054,0.771-2.625,0.522-3.395-0.523
		c-1.21-1.653-1.399-2.93-1.35-4.996c0.035-1.534-0.271-2.611-0.938-3.294c-0.471-0.481-1.093-0.729-1.802-0.729
		c-0.021,0-0.134,0.015-0.154,0.015H6.02c-0.615,0-2.364-0.132-3.146-1.421l0.006-0.006l0,0c0-0.002-0.005-0.002-0.005-0.002H2.87
		c-0.022-0.062-0.483-1.437,1.879-1.599c0.306-0.021,0.546-0.274,0.546-0.579v-0.083c0-0.305-0.24-0.557-0.544-0.579
		c-0.752-0.052-2.054-0.298-2.277-1.356c-0.124-0.433,0.005-0.498,0.081-0.749c0.203-0.335,0.741-0.717,2.117-0.758h0.101
		c0.283,0,0.523-0.229,0.523-0.513v-0.173c0-0.291-0.197-0.546-0.476-0.628c-0.571-0.169-1.5-0.519-1.763-1.064
		C2.95,7.458,3.869,7.2,5.687,7.138c0.101-0.004,0.197-0.05,0.266-0.125C6.022,6.938,6.056,6.837,6.05,6.736L6.045,6.646
		c-0.014-0.204-0.16-0.381-0.362-0.425c-0.689-0.15-2.082-0.596-0.824-1.908c0,0,0,0-0.001,0c0.583-0.491,1.289-0.82,2.03-0.82
		H17.19c0.817,0,1.78,1.087,2.164,2.101C19.878,6.995,20.673,9.341,20.442,11.687z M30.261,17.303c0,0.723-0.583,1.312-1.305,1.312
		h-5.215c-0.721,0-1.303-0.59-1.303-1.312s0.582-1.312,1.303-1.312h5.215C29.678,15.992,30.261,16.58,30.261,17.303z"/>
</g>
<g>
</g>
<g>
</g>
<g>
</g>
<g>
</g>
<g>
</g>
<g>
</g>
<g>
</g>
<g>
</g>
<g>
</g>
<g>
</g>
<g>
</g>
<g>
</g>
<g>
</g>
<g>
</g>
<g>
</g>
</svg>
