<?xml version="1.0" encoding="iso-8859-1"?>
<!-- Generator: Adobe Illustrator 16.0.0, SVG Export Plug-In . SVG Version: 6.00 Build 0)  -->
<!DOCTYPE svg PUBLIC "-//W3C//DTD SVG 1.1//EN" "http://www.w3.org/Graphics/SVG/1.1/DTD/svg11.dtd">
<svg version="1.1" id="Capa_1" xmlns="http://www.w3.org/2000/svg" xmlns:xlink="http://www.w3.org/1999/xlink" x="0px" y="0px"
	 width="105.476px" height="105.476px" viewBox="0 0 105.476 105.476" style="enable-background:new 0 0 105.476 105.476;"
	 xml:space="preserve">
<g>
	<path d="M105.476,66.802l-1.327-5.726c-0.408-0.418-0.888-0.768-1.443-1.055c-2.783-1.428-5.664-2.61-8.576-3.729
		c-0.217-0.083-0.477-0.249-0.566-0.438c-0.236-0.528-0.402-1.085-0.574-1.635c-0.104-0.353-0.199-0.684-0.584-0.855
		c-0.104-0.046-0.196-0.25-0.196-0.38c0.021-1.279-0.277-2.621,0.672-3.736c0.028-0.035,0.041-0.084,0.062-0.126
		c0.514-1.118,0.602-2.399,1.317-3.443c0.019-0.022,0.021-0.058,0.024-0.088c0.082-0.798,0.168-1.588,0.236-2.383
		c0.008-0.098-0.08-0.273-0.164-0.303c-0.395-0.14-0.373-0.457-0.371-0.773c0-1.553,0-1.78-0.002-3.332
		c0-0.904-0.266-1.706-0.947-2.32c-0.778-0.7-1.575-1.375-2.377-2.05c-0.385-0.325-0.418-0.577-0.057-0.935
		c0.162-0.159,0.363-0.273,0.551-0.407c-0.041-0.06-0.082-0.12-0.121-0.183c-0.244,0-0.485-0.03-0.721,0.005
		c-0.883,0.143-1.771,0.268-2.639,0.47c-1.658,0.391-3.266,0.91-4.609,2.02c-0.918,0.757-1.652,1.64-1.744,2.889
		c-0.047,0.653-0.041,1.312-0.047,1.965c-0.006,1.069,0.01,0.809-0.014,1.875c-0.006,0.172-0.102,0.459-0.223,0.498
		c-0.432,0.139-0.445,0.416-0.387,0.776c0.043,0.246,0.012,0.506,0.063,0.746c0.149,0.667,0.31,1.337,0.502,1.993
		c0.142,0.489,0.42,0.951,0.498,1.448c0.151,0.992,0.522,1.856,1.194,2.607c0.107,0.126,0.193,0.333,0.181,0.498
		c-0.056,0.762-0.132,1.527-0.236,2.287c-0.021,0.147-0.176,0.37-0.303,0.399c-0.509,0.104-0.586,0.495-0.707,0.892
		c-0.158,0.521-0.33,1.044-0.531,1.549c-0.063,0.158-0.223,0.32-0.377,0.391c-0.903,0.392-1.823,0.755-2.733,1.138
		c-0.967,0.407-1.945,0.795-2.894,1.243c-0.973,0.469-1.92,0.993-2.875,1.503c-0.562,0.301-1.086,0.635-1.524,1.048l-0.607,2.591
		c-1.057-1.09-3.281-1.811-5.986-1.811c-0.061,0-0.117,0.004-0.176,0.004L44.263,35.193c1.537-0.459,2.537-1.294,2.537-2.3
		c0-0.297-0.109-0.574-0.271-0.837l17.781-6.071c0.736,0.291,1.646,0.448,2.56,0.448c2.035,0,4.096-0.737,4.096-2.146
		c0-2.075-4.436-2.617-6.777-1.636l-0.543-2.337c-0.203-0.21-0.445-0.387-0.725-0.531c-1.402-0.719-2.854-1.314-4.318-1.876
		c-0.109-0.042-0.24-0.126-0.285-0.221c-0.119-0.266-0.203-0.546-0.291-0.823c-0.053-0.178-0.098-0.344-0.293-0.431
		c-0.053-0.023-0.1-0.125-0.1-0.191c0.01-0.644-0.139-1.319,0.34-1.881c0.014-0.018,0.02-0.042,0.031-0.063
		c0.256-0.563,0.301-1.208,0.662-1.734c0.008-0.01,0.01-0.029,0.012-0.043c0.043-0.402,0.086-0.8,0.121-1.2
		c0.004-0.05-0.041-0.138-0.084-0.153c-0.199-0.07-0.188-0.229-0.186-0.389c0-0.782,0-0.896-0.002-1.677
		c0-0.455-0.136-0.858-0.478-1.168c-0.394-0.354-0.795-0.692-1.196-1.032C56.66,6.737,56.645,6.61,56.826,6.43
		c0.08-0.08,0.182-0.138,0.274-0.206c-0.021-0.03-0.041-0.06-0.061-0.092c-0.123,0-0.244-0.015-0.361,0.003
		c-0.444,0.072-0.894,0.134-1.328,0.237c-0.836,0.196-1.646,0.458-2.321,1.017c-0.461,0.381-0.833,0.826-0.879,1.455
		c-0.023,0.329-0.02,0.661-0.023,0.99c-0.002,0.537,0.006,0.407-0.006,0.943c-0.002,0.087-0.053,0.231-0.113,0.25
		c-0.215,0.07-0.225,0.209-0.193,0.391c0.021,0.124,0.006,0.255,0.033,0.375c0.074,0.336,0.154,0.673,0.252,1.003
		c0.07,0.246,0.211,0.479,0.25,0.729c0.076,0.5,0.264,0.935,0.602,1.313c0.055,0.063,0.098,0.167,0.092,0.25
		c-0.027,0.384-0.066,0.769-0.119,1.151c-0.012,0.075-0.09,0.186-0.152,0.201c-0.256,0.052-0.295,0.25-0.357,0.449
		c-0.08,0.263-0.164,0.525-0.268,0.78c-0.031,0.079-0.111,0.161-0.188,0.196c-0.457,0.197-0.92,0.38-1.379,0.572
		c-0.486,0.206-0.979,0.401-1.455,0.626c-0.49,0.236-0.967,0.5-1.447,0.757c-0.283,0.151-0.547,0.319-0.768,0.527l-0.67,2.849
		c3.258,0,4.957,2.356,8.348,2.646l-1.25-1.724l1.938-5.297l-0.599-1.287h1.199l-0.603,1.287l1.938,5.297L55.996,25.8
		c2.027-0.34,5.033-1.862,7.105-2.4c-0.205,0.256-0.328,0.55-0.328,0.886c0,0.328,0.121,0.616,0.318,0.871l-17.54,5.989
		c-0.957-0.575-2.385-0.936-4.059-0.936c-2.203,0-3.998,0.616-4.818,1.54l-0.795-3.43c-0.275-0.282-0.602-0.519-0.977-0.713
		c-1.881-0.965-3.83-1.765-5.799-2.52c-0.146-0.056-0.322-0.169-0.385-0.296c-0.158-0.356-0.271-0.733-0.389-1.105
		c-0.07-0.238-0.133-0.462-0.395-0.579c-0.07-0.032-0.133-0.168-0.133-0.257c0.014-0.865-0.188-1.772,0.455-2.526
		c0.02-0.023,0.027-0.057,0.041-0.085c0.346-0.756,0.406-1.623,0.891-2.329c0.012-0.014,0.014-0.038,0.018-0.059
		c0.055-0.54,0.113-1.074,0.16-1.612c0.006-0.066-0.055-0.185-0.111-0.205c-0.268-0.095-0.254-0.309-0.25-0.523
		c0-1.05,0-1.203-0.004-2.253c0-0.611-0.178-1.153-0.639-1.569c-0.527-0.473-1.066-0.93-1.607-1.386
		c-0.26-0.22-0.283-0.39-0.037-0.632c0.107-0.107,0.244-0.185,0.371-0.275c-0.027-0.041-0.055-0.081-0.082-0.125
		c-0.164,0-0.328-0.02-0.486,0.004c-0.598,0.096-1.199,0.181-1.785,0.317c-1.121,0.265-2.209,0.615-3.117,1.366
		c-0.621,0.512-1.117,1.109-1.18,1.954c-0.031,0.442-0.027,0.887-0.031,1.329c-0.004,0.722,0.008,0.547-0.01,1.268
		c-0.002,0.117-0.068,0.311-0.15,0.336c-0.291,0.094-0.301,0.281-0.26,0.525c0.027,0.167,0.006,0.342,0.043,0.504
		c0.102,0.452,0.209,0.904,0.34,1.348c0.094,0.331,0.281,0.643,0.334,0.98c0.104,0.67,0.355,1.255,0.809,1.763
		c0.074,0.085,0.133,0.226,0.123,0.336c-0.037,0.516-0.088,1.033-0.16,1.547c-0.014,0.1-0.119,0.25-0.203,0.27
		c-0.344,0.07-0.396,0.334-0.48,0.603c-0.107,0.353-0.221,0.706-0.357,1.048c-0.043,0.107-0.15,0.216-0.254,0.264
		c-0.613,0.264-1.234,0.51-1.852,0.769c-0.652,0.275-1.314,0.538-1.955,0.84c-0.658,0.317-1.299,0.672-1.945,1.017
		c-0.379,0.204-0.734,0.429-1.029,0.708l-0.898,3.826c4.373,0,6.658,3.164,11.211,3.554l-1.678-2.316l2.6-7.115l-0.805-1.728h1.611
		l-0.806,1.728l2.602,7.115l-1.633,2.258c3.146-0.526,8.07-3.2,10.756-3.47c-0.102,0.215-0.174,0.437-0.174,0.673
		c0,1.529,2.281,2.683,5.305,2.683c0.531,0,1.027-0.047,1.504-0.114l19.735,26.553c-2.979,0.332-5.072,1.593-5.072,3.192
		c0,1.505,1.854,2.711,4.553,3.125L48.315,90.204c-0.801-0.139-1.65-0.233-2.541-0.271l-1.596-6.884
		c-0.52-0.534-1.135-0.98-1.844-1.349c-3.557-1.823-7.238-3.335-10.959-4.764c-0.277-0.105-0.609-0.318-0.725-0.56
		c-0.303-0.674-0.514-1.386-0.734-2.088c-0.135-0.451-0.252-0.874-0.746-1.093c-0.135-0.061-0.254-0.318-0.254-0.486
		c0.027-1.634-0.354-3.35,0.861-4.773c0.037-0.046,0.051-0.108,0.078-0.161c0.654-1.429,0.766-3.066,1.682-4.4
		c0.021-0.028,0.027-0.074,0.033-0.112c0.105-1.02,0.215-2.028,0.303-3.045c0.01-0.126-0.102-0.35-0.211-0.388
		c-0.502-0.178-0.477-0.583-0.473-0.988c0-1.983,0-2.272-0.004-4.257c0-1.156-0.338-2.18-1.209-2.965
		c-0.996-0.895-2.016-1.757-3.037-2.62c-0.492-0.416-0.535-0.737-0.072-1.195c0.205-0.203,0.463-0.35,0.703-0.521
		c-0.055-0.076-0.105-0.153-0.156-0.233c-0.309,0-0.621-0.039-0.92,0.007c-1.129,0.182-2.264,0.342-3.371,0.6
		c-2.119,0.5-4.174,1.163-5.891,2.582c-1.174,0.967-2.111,2.095-2.23,3.691c-0.059,0.835-0.053,1.678-0.059,2.513
		c-0.008,1.364,0.012,1.033-0.018,2.396c-0.008,0.221-0.131,0.587-0.285,0.636c-0.551,0.179-0.568,0.531-0.492,0.992
		c0.055,0.314,0.014,0.646,0.082,0.953c0.191,0.854,0.393,1.708,0.641,2.546c0.18,0.625,0.535,1.216,0.637,1.853
		c0.193,1.267,0.668,2.372,1.525,3.332c0.141,0.161,0.248,0.427,0.23,0.636c-0.068,0.975-0.168,1.953-0.301,2.923
		c-0.027,0.188-0.225,0.471-0.387,0.51c-0.65,0.133-0.75,0.633-0.904,1.139c-0.203,0.667-0.422,1.334-0.68,1.979
		c-0.08,0.202-0.283,0.409-0.48,0.5c-1.154,0.5-2.332,0.964-3.494,1.453c-1.236,0.521-2.486,1.016-3.695,1.589
		c-1.244,0.599-2.455,1.269-3.676,1.921c-0.717,0.385-1.389,0.812-1.949,1.338L0,90.368c8.268,0,12.584,5.979,21.188,6.717
		l-3.17-4.377l4.916-13.444l-1.52-3.266h3.045l-1.525,3.266l4.918,13.444l-3.088,4.27c2.971-0.497,6.783-2.011,10.488-3.464
		c-0.176,0.359-0.279,0.731-0.279,1.119c0,2.646,4.344,4.717,9.889,4.717s9.889-2.071,9.889-4.717c0-1.832-2.084-3.387-5.205-4.172
		l13.979-21.993c0.258,0.015,0.52,0.022,0.789,0.022c2.58,0,4.727-0.654,5.836-1.66c6.098,0.267,9.479,4.671,16.01,5.231
		l-2.48-3.426l3.848-10.52l-1.188-2.556h2.381l-1.19,2.556l3.846,10.52l-2.414,3.341C93.857,71.154,101.681,66.802,105.476,66.802z
		 M66.869,23.317c1.896,0,2.92,0.688,2.92,0.969c0,0.281-1.023,0.969-2.92,0.969c-1.897,0-2.92-0.688-2.92-0.969
		C63.949,24.005,64.972,23.317,66.869,23.317z M37.367,32.893c0-0.614,1.607-1.506,4.127-1.506c2.521,0,4.129,0.892,4.129,1.506
		c0,0.614-1.607,1.506-4.129,1.506C38.974,34.398,37.367,33.507,37.367,32.893z M53.574,94.63c0,1.675-3.581,3.541-8.713,3.541
		c-5.135,0-8.713-1.866-8.713-3.541c0-0.835,0.893-1.719,2.422-2.394c0.463-0.172,0.918-0.336,1.365-0.493
		c1.365-0.401,3.039-0.655,4.926-0.655C49.994,91.089,53.574,92.956,53.574,94.63z M64.312,67.312c-3.136,0-5.478-1.111-5.478-2.104
		s2.342-2.104,5.478-2.104c3.135,0,5.477,1.11,5.477,2.104S67.447,67.312,64.312,67.312z"/>
</g>
<g>
</g>
<g>
</g>
<g>
</g>
<g>
</g>
<g>
</g>
<g>
</g>
<g>
</g>
<g>
</g>
<g>
</g>
<g>
</g>
<g>
</g>
<g>
</g>
<g>
</g>
<g>
</g>
<g>
</g>
</svg>
