<?xml version="1.0" encoding="UTF-8" standalone="no"?>
<!-- Generator: Adobe Illustrator 16.0.0, SVG Export Plug-In . SVG Version: 6.00 Build 0)  -->

<svg
   xmlns:dc="http://purl.org/dc/elements/1.1/"
   xmlns:cc="http://creativecommons.org/ns#"
   xmlns:rdf="http://www.w3.org/1999/02/22-rdf-syntax-ns#"
   xmlns:svg="http://www.w3.org/2000/svg"
   xmlns="http://www.w3.org/2000/svg"
   xmlns:sodipodi="http://sodipodi.sourceforge.net/DTD/sodipodi-0.dtd"
   xmlns:inkscape="http://www.inkscape.org/namespaces/inkscape"
   version="1.1"
   id="Capa_1"
   x="0px"
   y="0px"
   width="406.639px"
   height="406.639px"
   viewBox="0 0 406.639 406.639"
   style="enable-background:new 0 0 406.639 406.639;"
   xml:space="preserve"
   inkscape:version="0.91 r13725"
   sodipodi:docname="screen-reload.svg"><title
   id="title3401">screen-reload</title><metadata
   id="metadata55"><rdf:RDF><cc:Work
       rdf:about=""><dc:format>image/svg+xml</dc:format><dc:type
         rdf:resource="http://purl.org/dc/dcmitype/StillImage" /><dc:title>screen-reload</dc:title></cc:Work></rdf:RDF></metadata><defs
   id="defs53" /><sodipodi:namedview
   pagecolor="#ffffff"
   bordercolor="#666666"
   borderopacity="1"
   objecttolerance="10"
   gridtolerance="10"
   guidetolerance="10"
   inkscape:pageopacity="0"
   inkscape:pageshadow="2"
   inkscape:window-width="1366"
   inkscape:window-height="705"
   id="namedview51"
   showgrid="false"
   inkscape:zoom="0.58036734"
   inkscape:cx="203.3195"
   inkscape:cy="203.3195"
   inkscape:window-x="-8"
   inkscape:window-y="-8"
   inkscape:window-maximized="1"
   inkscape:current-layer="g5" />
<g
   id="g3">
	<g
   id="g5">
		<path
   d="M236.391,345.439c0-1.559-1.275-2.834-2.835-2.834h-60.473c-1.559,0-2.834,1.275-2.834,2.834v9.52    c0,1.559-1.275,2.834-2.834,2.834h-43.22c-1.559,0-2.834,1.275-2.834,2.834v12.168c0,1.561,1.275,2.834,2.834,2.834h158.249    c1.561,0,2.836-1.273,2.836-2.834v-12.168c0-1.559-1.275-2.834-2.836-2.834h-43.217c-1.561,0-2.835-1.275-2.835-2.834    L236.391,345.439L236.391,345.439z"
   id="path7" />
		<path
   d="M383.855,31.01H22.783C10.22,31.01,0,41.231,0,53.794v250.921c0,12.562,10.221,22.783,22.783,22.783h361.073    c12.562,0,22.783-10.221,22.783-22.783V53.795C406.639,41.231,396.418,31.01,383.855,31.01z M22.783,48.255h361.073    c3.002,0,5.541,2.537,5.541,5.54v222.449H17.242V53.795C17.242,50.792,19.779,48.255,22.783,48.255z M193.054,297.561    c0-5.67,4.596-10.266,10.264-10.266c5.67,0,10.268,4.596,10.268,10.266s-4.598,10.266-10.268,10.266    C197.65,307.826,193.054,303.23,193.054,297.561z"
   id="path9" />
		
	</g>
</g>
<g
   id="g21">
</g>
<g
   id="g23">
</g>
<g
   id="g25">
</g>
<g
   id="g27">
</g>
<g
   id="g29">
</g>
<g
   id="g31">
</g>
<g
   id="g33">
</g>
<g
   id="g35">
</g>
<g
   id="g37">
</g>
<g
   id="g39">
</g>
<g
   id="g41">
</g>
<g
   id="g43">
</g>
<g
   id="g45">
</g>
<g
   id="g47">
</g>
<g
   id="g49">
</g>
<g
   transform="matrix(0.76734133,0,0,0.76208379,51.395048,-8.521618)"
   id="g9"><path
     inkscape:connector-curvature="0"
     d="m 272.473,178.455 c -1.428,-1.271 -3.496,-1.703 -5.312,-1.101 l -7.014,2.318 c -16.054,-22.044 -40.867,-34.66 -68.262,-34.66 -27.15,0 -52.813,13.159 -68.648,35.202 -0.861,1.2 -1.198,2.721 -0.924,4.172 0.275,1.454 1.145,2.747 2.384,3.548 l 13.203,8.54 c 0.881,0.571 1.9,0.872 2.946,0.872 1.718,0 3.352,-0.825 4.369,-2.208 11.039,-14.982 28.05,-23.575 46.67,-23.575 15.479,0 30.335,6.198 41.125,17.082 l -4.224,1.396 c -1.834,0.606 -3.217,2.159 -3.608,4.05 -0.393,1.893 0.261,3.866 1.703,5.152 l 30.17,26.884 c 0.994,0.887 2.277,1.375 3.609,1.375 0.584,0 1.158,-0.093 1.701,-0.272 1.836,-0.606 3.219,-2.158 3.61,-4.052 l 8.201,-39.573 c 0.394,-1.89 -0.258,-3.864 -1.699,-5.15 z"
     id="path11-8" /><path
     inkscape:connector-curvature="0"
     d="m 267.492,259.553 -13.205,-8.543 c -0.881,-0.568 -1.898,-0.871 -2.943,-0.871 -1.719,0 -3.354,0.826 -4.371,2.209 -11.041,14.982 -28.051,23.576 -46.67,23.576 -15.479,0 -30.333,-6.198 -41.124,-17.082 l 4.223,-1.396 c 1.834,-0.607 3.217,-2.16 3.609,-4.053 0.392,-1.892 -0.261,-3.863 -1.703,-5.149 L 135.137,221.36 c -1.429,-1.273 -3.529,-1.696 -5.311,-1.103 -1.835,0.605 -3.218,2.157 -3.611,4.052 l -8.202,39.571 c -0.392,1.892 0.261,3.864 1.703,5.15 1.427,1.271 3.495,1.703 5.313,1.102 l 7.013,-2.317 c 16.052,22.044 40.867,34.66 68.261,34.66 27.15,0 52.813,-13.16 68.648,-35.202 0.861,-1.199 1.197,-2.721 0.924,-4.173 -0.272,-1.453 -1.145,-2.746 -2.383,-3.547 z"
     id="path13" /></g></svg>