<?xml version="1.0" encoding="UTF-8" standalone="no"?>
<!-- Generator: Adobe Illustrator 16.0.0, SVG Export Plug-In . SVG Version: 6.00 Build 0)  -->

<svg
   xmlns:dc="http://purl.org/dc/elements/1.1/"
   xmlns:cc="http://creativecommons.org/ns#"
   xmlns:rdf="http://www.w3.org/1999/02/22-rdf-syntax-ns#"
   xmlns:svg="http://www.w3.org/2000/svg"
   xmlns="http://www.w3.org/2000/svg"
   xmlns:sodipodi="http://sodipodi.sourceforge.net/DTD/sodipodi-0.dtd"
   xmlns:inkscape="http://www.inkscape.org/namespaces/inkscape"
   version="1.1"
   id="Capa_1"
   x="0px"
   y="0px"
   width="406.639px"
   height="406.639px"
   viewBox="0 0 406.639 406.639"
   style="enable-background:new 0 0 406.639 406.639;"
   xml:space="preserve"
   inkscape:version="0.91 r13725"
   sodipodi:docname="screen-chat.svg"><title
   id="title3383">screen-chat</title><metadata
   id="metadata55"><rdf:RDF><cc:Work
       rdf:about=""><dc:format>image/svg+xml</dc:format><dc:type
         rdf:resource="http://purl.org/dc/dcmitype/StillImage" /><dc:title>screen-chat</dc:title></cc:Work></rdf:RDF></metadata><defs
   id="defs53" /><sodipodi:namedview
   pagecolor="#ffffff"
   bordercolor="#666666"
   borderopacity="1"
   objecttolerance="10"
   gridtolerance="10"
   guidetolerance="10"
   inkscape:pageopacity="0"
   inkscape:pageshadow="2"
   inkscape:window-width="1366"
   inkscape:window-height="705"
   id="namedview51"
   showgrid="false"
   inkscape:zoom="0.58036734"
   inkscape:cx="203.3195"
   inkscape:cy="203.3195"
   inkscape:window-x="-8"
   inkscape:window-y="-8"
   inkscape:window-maximized="1"
   inkscape:current-layer="Capa_1" />
<g
   id="g3">
	<g
   id="g5">
		<path
   d="M236.391,345.439c0-1.559-1.275-2.834-2.835-2.834h-60.473c-1.559,0-2.834,1.275-2.834,2.834v9.52    c0,1.559-1.275,2.834-2.834,2.834h-43.22c-1.559,0-2.834,1.275-2.834,2.834v12.168c0,1.561,1.275,2.834,2.834,2.834h158.249    c1.561,0,2.836-1.273,2.836-2.834v-12.168c0-1.559-1.275-2.834-2.836-2.834h-43.217c-1.561,0-2.835-1.275-2.835-2.834    L236.391,345.439L236.391,345.439z"
   id="path7" />
		<path
   d="M383.855,31.01H22.783C10.22,31.01,0,41.231,0,53.794v250.921c0,12.562,10.221,22.783,22.783,22.783h361.073    c12.562,0,22.783-10.221,22.783-22.783V53.795C406.639,41.231,396.418,31.01,383.855,31.01z M22.783,48.255h361.073    c3.002,0,5.541,2.537,5.541,5.54v222.449H17.242V53.795C17.242,50.792,19.779,48.255,22.783,48.255z M193.054,297.561    c0-5.67,4.596-10.266,10.264-10.266c5.67,0,10.268,4.596,10.268,10.266s-4.598,10.266-10.268,10.266    C197.65,307.826,193.054,303.23,193.054,297.561z"
   id="path9" />
		<g
   id="g11">
			<g
   id="g13">
				<path
   d="M146.578,249.224c-1.212,0-2.412-0.218-3.556-0.663c-3.509-1.367-5.964-4.664-6.569-8.82l-2.511-17.248h-17.577      c-7.262,0-13.169-5.907-13.169-13.168v-80.651c0-7.262,5.907-13.169,13.169-13.169h19.544c4.143,0,7.5,3.358,7.5,7.5      s-3.357,7.5-7.5,7.5h-17.713v76.99h16.563c6.817,0,12.926,5.283,13.908,12.029l1.54,10.578l21.283-17.341      c3.744-3.051,9.97-5.267,14.801-5.267h11.284c4.143,0,7.5,3.357,7.5,7.5c0,4.142-3.356,7.5-7.5,7.5h-11.284      c-1.402,0-4.239,1.009-5.325,1.895l-27.144,22.115C151.63,248.292,149.08,249.224,146.578,249.224z"
   id="path15" />
			</g>
			<g
   id="g17">
				<path
   d="M260.033,218.926c-2.535,0-5.03-0.941-7.219-2.725l-27.142-22.115c-1.087-0.886-3.925-1.896-5.327-1.896h-51.26      c-7.262,0-13.169-5.908-13.169-13.169V98.37c0-7.262,5.907-13.169,13.169-13.169h121.188c7.262,0,13.168,5.908,13.168,13.169      v80.651c0,7.262-5.906,13.169-13.168,13.169h-17.576l-2.512,17.248C269.373,215.023,265.197,218.926,260.033,218.926z       M170.917,177.191h49.429c4.831,0,11.057,2.215,14.803,5.266l21.282,17.342l1.54-10.579c0.982-6.746,7.092-12.029,13.906-12.029      h16.564v-76.99H170.917V177.191z"
   id="path19" />
			</g>
		</g>
	</g>
</g>
<g
   id="g21">
</g>
<g
   id="g23">
</g>
<g
   id="g25">
</g>
<g
   id="g27">
</g>
<g
   id="g29">
</g>
<g
   id="g31">
</g>
<g
   id="g33">
</g>
<g
   id="g35">
</g>
<g
   id="g37">
</g>
<g
   id="g39">
</g>
<g
   id="g41">
</g>
<g
   id="g43">
</g>
<g
   id="g45">
</g>
<g
   id="g47">
</g>
<g
   id="g49">
</g>
</svg>