<?xml version="1.0" encoding="UTF-8" standalone="no"?>
<!-- Generator: Adobe Illustrator 16.0.0, SVG Export Plug-In . SVG Version: 6.00 Build 0)  -->

<svg
   xmlns:dc="http://purl.org/dc/elements/1.1/"
   xmlns:cc="http://creativecommons.org/ns#"
   xmlns:rdf="http://www.w3.org/1999/02/22-rdf-syntax-ns#"
   xmlns:svg="http://www.w3.org/2000/svg"
   xmlns="http://www.w3.org/2000/svg"
   xmlns:sodipodi="http://sodipodi.sourceforge.net/DTD/sodipodi-0.dtd"
   xmlns:inkscape="http://www.inkscape.org/namespaces/inkscape"
   version="1.1"
   id="Capa_1"
   x="0px"
   y="0px"
   width="406.639px"
   height="406.639px"
   viewBox="0 0 406.639 406.639"
   style="enable-background:new 0 0 406.639 406.639;"
   xml:space="preserve"
   inkscape:version="0.91 r13725"
   sodipodi:docname="screen-sharescn.svg"><title
   id="title3401">screen-sharescn</title><metadata
   id="metadata55"><rdf:RDF><cc:Work
       rdf:about=""><dc:format>image/svg+xml</dc:format><dc:type
         rdf:resource="http://purl.org/dc/dcmitype/StillImage" /><dc:title>screen-sharescn</dc:title></cc:Work></rdf:RDF></metadata><defs
   id="defs53" /><sodipodi:namedview
   pagecolor="#ffffff"
   bordercolor="#666666"
   borderopacity="1"
   objecttolerance="10"
   gridtolerance="10"
   guidetolerance="10"
   inkscape:pageopacity="0"
   inkscape:pageshadow="2"
   inkscape:window-width="1366"
   inkscape:window-height="705"
   id="namedview51"
   showgrid="false"
   inkscape:zoom="0.58036734"
   inkscape:cx="203.3195"
   inkscape:cy="203.3195"
   inkscape:window-x="-8"
   inkscape:window-y="-8"
   inkscape:window-maximized="1"
   inkscape:current-layer="Capa_1" />
<g
   id="g3">
	<g
   id="g5">
		<path
   d="M236.391,345.439c0-1.559-1.275-2.834-2.835-2.834h-60.473c-1.559,0-2.834,1.275-2.834,2.834v9.52    c0,1.559-1.275,2.834-2.834,2.834h-43.22c-1.559,0-2.834,1.275-2.834,2.834v12.168c0,1.561,1.275,2.834,2.834,2.834h158.249    c1.561,0,2.836-1.273,2.836-2.834v-12.168c0-1.559-1.275-2.834-2.836-2.834h-43.217c-1.561,0-2.835-1.275-2.835-2.834    L236.391,345.439L236.391,345.439z"
   id="path7" />
		<path
   d="M383.855,31.01H22.783C10.22,31.01,0,41.231,0,53.794v250.921c0,12.562,10.221,22.783,22.783,22.783h361.073    c12.562,0,22.783-10.221,22.783-22.783V53.795C406.639,41.231,396.418,31.01,383.855,31.01z M22.783,48.255h361.073    c3.002,0,5.541,2.537,5.541,5.54v222.449H17.242V53.795C17.242,50.792,19.779,48.255,22.783,48.255z M193.054,297.561    c0-5.67,4.596-10.266,10.264-10.266c5.67,0,10.268,4.596,10.268,10.266s-4.598,10.266-10.268,10.266    C197.65,307.826,193.054,303.23,193.054,297.561z"
   id="path9" />
		
	<path
   inkscape:connector-curvature="0"
   d="m 325.81936,64.808073 -244.999713,0 c -9.226906,0 -16.734102,5.919905 -16.734102,13.196473 l 0,173.093374 c 0,7.27656 7.507196,13.19591 16.734102,13.19591 l 244.999713,0 c 9.22761,0 16.7341,-5.91935 16.7341,-13.19591 l 0,-173.092815 c 0,-7.27656 -7.50791,-13.197032 -16.7341,-13.197032 z m -50.45509,22.159481 c 0,-2.690919 2.76629,-4.872319 6.17801,-4.872319 l 6.17944,0 c 3.41385,0 6.17943,2.1814 6.17943,4.872319 l 0,5.522383 c 0,2.69091 -2.76629,4.87231 -6.17943,4.87231 l -6.17944,0 c -3.41172,0 -6.17801,-2.1814 -6.17801,-4.87231 l 0,-5.522383 z m -28.73299,0 c 0,-2.690919 2.76771,-4.872319 6.17944,-4.872319 l 6.17801,0 c 3.41314,0 6.17943,2.1814 6.17943,4.872319 l 0,5.522383 c 0,2.69091 -2.76629,4.87231 -6.17943,4.87231 l -6.17801,0 c -3.41173,0 -6.17944,-2.1814 -6.17944,-4.87231 l 0,-5.522383 z m 75.84026,161.490396 -238.304786,0 0,-136.45857 238.303366,0 0,136.45857 0.002,0 z m 0.16118,-155.968013 c 0,2.69091 -2.76629,4.87231 -6.17802,4.87231 l -6.17943,0 c -3.41314,0 -6.17873,-2.1814 -6.17873,-4.87231 l 0,-5.522383 c 0,-2.690919 2.76631,-4.872319 6.17873,-4.872319 l 6.17943,0 c 3.41243,0 6.17802,2.1814 6.17802,4.872319 l 0,5.522383 z"
   id="path15" /></g>
</g>
<g
   id="g21">
</g>
<g
   id="g23">
</g>
<g
   id="g25">
</g>
<g
   id="g27">
</g>
<g
   id="g29">
</g>
<g
   id="g31">
</g>
<g
   id="g33">
</g>
<g
   id="g35">
</g>
<g
   id="g37">
</g>
<g
   id="g39">
</g>
<g
   id="g41">
</g>
<g
   id="g43">
</g>
<g
   id="g45">
</g>
<g
   id="g47">
</g>
<g
   id="g49">
</g>
<path
   d="m 215.19698,227.78493 c 31.14761,-4.27676 45.38071,-43.49336 34.97276,-69.96311 -8.53986,-21.67925 -32.12614,-31.80608 -53.96506,-29.03838 -25.28918,3.20437 -40.53892,24.40201 -42.66118,48.82327 0.27958,33.14178 30.29618,54.48711 61.65348,50.17822 z m -24.18357,-63.95892 c 0.0127,-0.98892 0.33676,-1.7852 0.76249,-2.45947 0.89593,-2.00353 2.92922,-3.26859 5.28022,-2.08059 0.11438,0.0321 0.18428,0.0834 0.27958,0.11559 0.0318,0.0128 0.0572,0.006 0.0954,0.0256 0.0318,0.0256 0.0636,0.0386 0.1017,0.0578 0.4702,0.1798 0.88321,0.43666 1.23268,0.78343 8.17768,5.09874 16.35536,10.19747 24.53304,15.28978 2.63058,1.64393 3.81245,5.9528 0.59093,7.83433 -8.64152,5.05378 -17.29576,10.10756 -25.93729,15.16135 -2.71953,1.58613 -7.00853,0.24402 -7.00853,-3.44197 0.0445,-10.42864 0.0571,-20.86371 0.0699,-31.28593 z"
   id="path8"
   inkscape:connector-curvature="0" /></svg>