<?xml version="1.0" encoding="iso-8859-1"?>
<!-- Generator: Adobe Illustrator 19.1.0, SVG Export Plug-In . SVG Version: 6.00 Build 0)  -->
<svg version="1.1" id="Capa_1" xmlns="http://www.w3.org/2000/svg" xmlns:xlink="http://www.w3.org/1999/xlink" x="0px" y="0px"
	 viewBox="0 0 48 48" style="enable-background:new 0 0 48 48;" xml:space="preserve">
<g id="system_1_">
	<g>
		<path d="M37.001,25.942c-3.241,0-6.146,1.414-8.159,3.65l-11.391-6.167c0.582-1.782,0.73-3.781,0.299-5.777l14.052-5.941
			c1.281,1.427,3.132,2.33,5.198,2.33c3.866,0,7-3.142,7-7.018c0-3.876-3.134-7.018-7-7.018c-4.21,0-7.57,3.737-6.911,8.078
			l-14.27,6.033c-1.651-1.924-4.091-3.146-6.82-3.146C4.029,10.967,0,15.007,0,19.99c0,4.983,4.029,9.023,8.999,9.023
			c2.323,0,4.434-0.89,6.031-2.339l11.713,6.341c-2.781,7.241,2.565,14.984,10.258,14.984C43.075,47.998,48,43.06,48,36.97
			C48,30.88,43.075,25.942,37.001,25.942z M37.001,4.013c1.654,0,3,1.349,3,3.008c0,1.658-1.346,3.008-3,3.008
			c-1.654,0-3-1.349-3-3.008C34.001,5.362,35.347,4.013,37.001,4.013z M13.998,20.001c-0.006,2.759-2.246,5.001-4.999,5.001
			c-2.757,0-5-2.249-5-5.013c0-2.764,2.243-5.013,5-5.013c2.754,0,4.994,2.244,4.999,5.004c0,0.003,0,0.005,0,0.008
			C13.999,19.993,13.998,19.997,13.998,20.001z M37.001,43.987c-3.86,0-7-3.148-7-7.018c0-3.87,3.14-7.018,7-7.018
			c3.859,0,7,3.148,7,7.018C44,40.839,40.86,43.987,37.001,43.987z"/>
	</g>
</g>
<g>
</g>
<g>
</g>
<g>
</g>
<g>
</g>
<g>
</g>
<g>
</g>
<g>
</g>
<g>
</g>
<g>
</g>
<g>
</g>
<g>
</g>
<g>
</g>
<g>
</g>
<g>
</g>
<g>
</g>
</svg>
