<?xml version="1.0" encoding="iso-8859-1"?>
<!-- Generator: Adobe Illustrator 18.0.0, SVG Export Plug-In . SVG Version: 6.00 Build 0)  -->
<!DOCTYPE svg PUBLIC "-//W3C//DTD SVG 1.1//EN" "http://www.w3.org/Graphics/SVG/1.1/DTD/svg11.dtd">
<svg version="1.1" id="Capa_1" xmlns="http://www.w3.org/2000/svg" xmlns:xlink="http://www.w3.org/1999/xlink" x="0px" y="0px"
	 viewBox="0 0 274.921 274.921" style="enable-background:new 0 0 274.921 274.921;" xml:space="preserve">
<g>
	<path d="M136.081,83.753h-22.326V61.427c0-8.284-6.716-15-15-15s-15,6.716-15,15v22.326H61.429c-8.284,0-15,6.716-15,15
		s6.716,15,15,15h22.326v22.326c0,8.284,6.716,15,15,15s15-6.716,15-15v-22.326h22.326c8.284,0,15-6.716,15-15
		S144.365,83.753,136.081,83.753z"/>
	<path d="M267.306,230.535l-82.772-82.772c8.465-14.758,12.976-31.536,12.976-49.009C197.508,44.175,153.343,0,98.755,0
		C44.177,0,0.002,44.167,0,98.754c0,75.801,82.21,123.374,147.765,85.778l82.772,82.773c10.153,10.153,26.614,10.153,36.768,0
		C277.459,257.151,277.459,240.688,267.306,230.535z M30,98.755C30,60.756,60.751,30,98.755,30
		c37.997,0,68.755,30.749,68.755,68.754c0,18.365-7.151,35.631-20.138,48.616C103.897,190.846,30,159.43,30,98.755z"/>
</g>
<g>
</g>
<g>
</g>
<g>
</g>
<g>
</g>
<g>
</g>
<g>
</g>
<g>
</g>
<g>
</g>
<g>
</g>
<g>
</g>
<g>
</g>
<g>
</g>
<g>
</g>
<g>
</g>
<g>
</g>
</svg>
