<?xml version="1.0" encoding="iso-8859-1"?>
<!-- Generator: Adobe Illustrator 18.0.0, SVG Export Plug-In . SVG Version: 6.00 Build 0)  -->
<!DOCTYPE svg PUBLIC "-//W3C//DTD SVG 1.1//EN" "http://www.w3.org/Graphics/SVG/1.1/DTD/svg11.dtd">
<svg version="1.1" id="Capa_1" xmlns="http://www.w3.org/2000/svg" xmlns:xlink="http://www.w3.org/1999/xlink" x="0px" y="0px"
	 viewBox="0 0 274.921 274.921" style="enable-background:new 0 0 274.921 274.921;" xml:space="preserve">
<g>
	<path d="M136.081,83.753H61.429c-8.284,0-15,6.716-15,15c0,8.284,6.716,15,15,15h74.652c8.284,0,15-6.716,15-15
		C151.081,90.469,144.365,83.753,136.081,83.753z"/>
	<path d="M267.306,230.535l-82.771-82.771c8.465-14.76,12.976-31.537,12.976-49.01C197.508,44.175,153.343,0,98.755,0
		C44.177,0,0.002,44.166,0,98.754c0,54.58,44.167,98.755,98.755,98.755c17.473,0,34.25-4.512,49.01-12.976l82.772,82.772
		c10.153,10.153,26.614,10.153,36.768,0C277.459,257.151,277.459,240.689,267.306,230.535z M30,98.755
		C30,60.756,60.751,30,98.755,30c37.997,0,68.755,30.75,68.755,68.754c0,37.998-30.751,68.755-68.755,68.755
		C60.757,167.509,30,136.759,30,98.755z"/>
</g>
<g>
</g>
<g>
</g>
<g>
</g>
<g>
</g>
<g>
</g>
<g>
</g>
<g>
</g>
<g>
</g>
<g>
</g>
<g>
</g>
<g>
</g>
<g>
</g>
<g>
</g>
<g>
</g>
<g>
</g>
</svg>
